<?xml version="1.0" standalone="no"?>
<!DOCTYPE svg PUBLIC "-//W3C//DTD SVG 20010904//EN"
 "http://www.w3.org/TR/2001/REC-SVG-20010904/DTD/svg10.dtd">
<svg version="1.0" xmlns="http://www.w3.org/2000/svg"
 width="16.000000pt" height="16.000000pt" viewBox="0 0 16.000000 16.000000"
 preserveAspectRatio="xMidYMid meet">
<metadata>
Created by potrace 1.11, written by Peter Selinger 2001-2013
</metadata>
<g transform="translate(0.000000,16.000000) scale(0.003200,-0.003200)"
fill="#000000" stroke="none">
<path d="M2599 4886 c-2 -2 -31 -7 -64 -10 -33 -4 -67 -9 -75 -11 -8 -2 -31
-7 -50 -10 -61 -10 -264 -82 -341 -120 -41 -20 -117 -65 -169 -100 -83 -55
-103 -64 -155 -69 -98 -9 -146 -17 -225 -36 -477 -114 -866 -452 -1051 -913
-22 -54 -66 -203 -73 -247 -3 -14 -8 -45 -11 -70 -4 -25 -9 -54 -11 -65 -3
-11 -5 -72 -6 -135 -2 -112 -3 -117 -36 -173 -93 -160 -154 -336 -187 -547
-18 -109 -13 -355 9 -475 21 -115 83 -300 134 -402 146 -290 403 -543 692
-681 57 -27 72 -41 120 -108 30 -42 98 -120 150 -173 220 -221 486 -359 815
-422 115 -22 418 -17 539 10 164 35 348 106 471 180 24 15 59 20 185 24 173 6
183 8 325 42 661 162 1133 758 1138 1440 1 65 -12 245 -18 255 -2 4 9 35 25
69 17 34 30 65 30 70 0 4 7 22 16 39 20 42 73 251 82 327 9 77 9 324 -1 395
-46 358 -244 717 -523 951 -44 38 -182 132 -232 160 -34 18 -59 47 -119 138
-54 82 -107 147 -191 231 -241 239 -509 374 -851 425 -76 12 -333 19 -342 11z
m356 -196 c309 -53 580 -206 788 -447 l18 -21 -43 10 c-128 29 -211 37 -373
34 -193 -4 -201 -5 -360 -46 l-116 -30 -67 54 c-170 136 -394 244 -605 291
-88 20 -88 21 18 67 225 98 495 130 740 88z m-830 -325 c107 -22 238 -66 327
-111 82 -41 208 -122 208 -133 0 -4 -35 -19 -77 -33 -154 -51 -1079 -369
-1102 -379 -13 -5 -25 -8 -26 -7 -4 4 43 155 61 198 70 159 167 303 287 422
l70 70 86 -5 c47 -3 122 -13 166 -22z m-583 -67 c-121 -156 -224 -371 -262
-545 -28 -125 -22 -118 -108 -148 -42 -15 -91 -33 -107 -40 -17 -8 -51 -22
-76 -33 -107 -46 -319 -192 -393 -271 -17 -17 -33 -31 -37 -31 -12 0 37 210
70 299 109 297 339 560 621 708 112 59 263 115 333 122 4 1 -14 -27 -41 -61z
m2043 -223 c17 -3 50 -10 75 -16 61 -13 232 -70 249 -83 32 -24 97 -209 126
-355 25 -124 23 -431 -3 -477 -5 -9 -21 -1 -53 29 -25 23 -92 85 -150 137 -57
52 -128 118 -158 145 -30 28 -62 57 -71 65 -66 60 -234 214 -279 255 -107 97
-176 161 -235 216 l-59 57 54 11 c30 7 74 15 99 18 25 3 47 7 49 9 7 7 322 -3
356 -11z m-687 -157 c37 -34 72 -67 78 -73 6 -5 51 -46 99 -90 49 -44 117
-107 152 -139 35 -32 72 -67 83 -76 11 -9 61 -55 112 -102 140 -129 114 -105
392 -358 34 -30 85 -78 115 -106 l54 -51 -47 -190 c-25 -105 -47 -200 -49
-210 -2 -10 -7 -29 -10 -43 -15 -58 -79 -327 -83 -350 -3 -14 -7 -33 -10 -42
-3 -9 -7 -26 -9 -37 -6 -27 -11 -45 -24 -101 -7 -25 -14 -54 -16 -64 -15 -65
-42 -178 -69 -291 l-32 -129 -69 -24 c-437 -151 -601 -207 -660 -227 -38 -13
-189 -65 -335 -115 -286 -99 -349 -120 -365 -120 -5 0 -28 17 -50 37 -22 20
-85 78 -140 128 -55 51 -158 145 -230 210 -71 65 -157 143 -190 174 -33 31
-101 93 -150 138 -129 116 -131 118 -244 223 -57 52 -113 103 -126 113 -19 16
-21 24 -14 55 5 21 25 105 44 187 20 83 38 157 40 165 78 334 142 600 204 854
l56 229 125 43 c69 24 197 68 285 98 258 88 740 254 875 301 69 24 128 44 133
44 4 1 38 -27 75 -61z m1433 -245 c177 -186 300 -438 344 -706 13 -81 14 -323
1 -397 -12 -63 -39 -175 -46 -189 -6 -11 -9 -8 -15 10 -15 50 -89 188 -152
282 -36 54 -112 147 -172 209 l-107 111 18 81 c49 218 42 476 -18 711 l-7 29
39 -31 c22 -17 73 -67 115 -110z m-3135 -270 c-5 -16 -43 -175 -51 -213 -2 -8
-20 -82 -39 -164 -20 -82 -39 -163 -42 -179 -2 -17 -7 -33 -9 -37 -2 -3 -6
-17 -9 -31 -2 -13 -22 -98 -44 -189 -47 -195 -63 -261 -64 -275 0 -5 -4 -21
-9 -34 -5 -13 -12 -40 -15 -60 -3 -20 -8 -38 -10 -40 -16 -17 -156 175 -219
298 -56 113 -108 276 -121 381 -3 19 -7 42 -9 51 -14 43 173 244 320 345 93
64 161 101 255 140 67 28 73 29 66 7z m3000 -680 c65 -69 162 -210 211 -307
36 -72 103 -263 103 -296 0 -66 -251 -344 -400 -442 -88 -58 -257 -145 -265
-136 -3 3 13 81 36 174 22 93 43 179 45 192 2 12 22 96 44 185 58 240 105 437
135 570 15 64 29 117 32 117 3 0 29 -26 59 -57z m-3669 -329 c62 -120 151
-249 243 -346 l82 -88 -17 -77 c-11 -51 -19 -138 -21 -248 -4 -185 12 -307 60
-470 13 -44 22 -82 20 -84 -6 -7 -132 96 -199 164 -194 196 -329 459 -370 725
-12 73 -15 308 -5 370 6 36 13 79 16 95 5 32 48 179 66 223 9 25 13 19 47 -78
21 -58 56 -141 78 -186z m4017 -596 c-1 -18 -5 -62 -8 -98 -24 -288 -162 -581
-376 -798 -79 -81 -202 -174 -300 -230 -118 -66 -298 -126 -452 -150 l-57 -9
73 84 c175 198 277 395 352 674 l15 57 77 27 c148 53 332 156 452 252 50 41
210 203 210 214 0 5 4 9 9 9 4 0 7 -15 5 -32z m-3510 0 c17 -17 193 -178 220
-201 12 -10 64 -58 116 -107 52 -48 117 -107 144 -131 27 -24 61 -55 75 -69
15 -14 51 -47 81 -75 31 -27 103 -93 160 -146 58 -53 120 -110 139 -127 19
-17 33 -34 30 -36 -17 -17 -229 -48 -339 -49 -149 -2 -217 5 -336 34 -157 38
-155 37 -207 147 -48 103 -90 227 -102 302 -4 25 -10 54 -13 65 -7 28 -11 322
-5 368 5 39 16 46 37 25z m2532 -600 c-8 -30 -23 -72 -33 -94 -9 -21 -17 -41
-18 -44 0 -3 -17 -36 -37 -75 -75 -146 -211 -310 -344 -416 -59 -47 -66 -50
-106 -44 -215 29 -437 124 -619 267 l-57 44 312 106 c768 262 899 308 904 313
13 13 13 -8 -2 -57z m-1295 -527 c125 -106 302 -206 462 -259 l87 -30 -57 -21
c-86 -31 -199 -60 -268 -68 -77 -10 -282 -10 -360 -1 -258 32 -533 162 -718
340 -39 38 -64 67 -55 64 38 -11 159 -20 283 -20 148 0 291 22 422 63 l88 27
26 -20 c14 -12 55 -45 90 -75z"/>
</g>
</svg>
