<?xml version="1.0" standalone="no"?>
<!DOCTYPE svg PUBLIC "-//W3C//DTD SVG 20010904//EN"
 "http://www.w3.org/TR/2001/REC-SVG-20010904/DTD/svg10.dtd">
<svg version="1.0" xmlns="http://www.w3.org/2000/svg"
 width="16.000000pt" height="16.000000pt" viewBox="0 0 16.000000 16.000000"
 preserveAspectRatio="xMidYMid meet">
<metadata>
Created by potrace 1.11, written by Peter Selinger 2001-2013
</metadata>
<g transform="translate(0.000000,16.000000) scale(0.006250,-0.006250)"
fill="#000000" stroke="none">
<path d="M908 2240 l-3 -310 -248 248 -248 247 2 -350 2 -350 248 -247 249
-247 0 -500 c0 -466 1 -499 18 -506 9 -4 49 -18 87 -32 39 -13 77 -27 85 -30
34 -13 236 -85 245 -87 12 -3 41 -14 72 -26 11 -5 23 -7 25 -5 1 2 3 148 2
324 0 177 1 321 4 321 2 0 159 -154 349 -342 189 -189 346 -345 349 -347 2 -2
4 152 4 342 l0 347 -352 350 -353 351 -2 487 c0 268 -2 492 -2 499 -1 6 -11
15 -23 18 -13 4 -127 40 -253 81 -127 41 -236 74 -243 74 -9 0 -12 -76 -14
-310z m94 246 c122 -40 345 -110 363 -113 11 -2 25 -9 30 -17 6 -8 9 -176 8
-462 -1 -247 -2 -451 -2 -454 -1 -3 -102 96 -226 220 l-225 225 0 307 c0 170
2 308 5 308 2 0 24 -6 47 -14z m179 -1527 l222 -221 1 -315 c1 -173 -2 -317
-5 -319 -5 -3 -93 26 -349 118 l-95 34 -3 462 c-1 254 0 462 3 462 2 0 104
-99 226 -221z"/>
</g>
</svg>
